:SAMPLES-PER-SECOND 30
:FULLY-SPECIFIED
:DEGREES
131
root  10.3955 32.7481 1.63237 -122.395 -81.5753 133.733
RightUpLeg  -60.0348 3.8367 -5.98813
RightLeg  65.7755 -6.03165 -14.9939
RightFoot  -14.7889 0.0782944 5.9131
RightToes  5.82063e-011 0 -3.6325e-017
Spine  44.5322 -0.75301 2.85403
Spine1  -24.5132 1.10664 -10.7143
HEad  -45.307 -24.2507 11.4563
LeftShoulder1  -0.289938 -1.66354 16.111
LeftArm  84.4828 -74.2874 -169.76
LeftForeArm  143.038 -76.7678 -133.741
LeftHand  -0.944998 1.02655 24.9783
RightShoulder  0.796118 -7.9228 -29.6889
RightArm  -148.669 66.9293 -87.7093
RightForeArm  5.89197 -5.85532 0.0443487
RightHand  0.0898771 -6.32871 -13.5022
LeftUpLeg  -55.536 -6.60957 -8.71238
LeftLeg  62.7008 5.04752 11.1786
LeftFoot  -18.3205 -0.175355 -4.66427
LeftToes  -1.1369e-010 2.7689e-011 -1.90827e-011
132
root  10.543 32.0122 1.96856 -128.717 -79.5582 138.822
RightUpLeg  -61.6317 4.13469 -6.97604
RightLeg  68.9261 -4.54599 -13.6221
RightFoot  -14.8738 0.0483611 4.82974
RightToes  5.82063e-011 0 -3.6325e-017
Spine  45.7246 -1.22267 3.50445
Spine1  -23.794 0.999721 -11.8596
HEad  -48.5835 -25.3731 10.7824
LeftShoulder1  -0.34726 -3.55323 15.2859
LeftArm  72.0963 -74.8815 -155.473
LeftForeArm  143.962 -76.588 -134.596
LeftHand  -0.950252 0.9075 24.4621
RightShoulder  0.254084 -5.02163 -27.7569
RightArm  -155.106 72.0079 -89.705
RightForeArm  9.86561 -6.03319 0.951323
RightHand  0.0796272 -6.22776 -13.6364
LeftUpLeg  -56.608 -5.47544 -10.4032
LeftLeg  66.1662 4.58341 12.0206
LeftFoot  -19.4307 -0.214122 -4.67495
LeftToes  -1.1369e-010 2.7689e-011 -1.90827e-011
133
root  10.6434 31.8641 2.27884 -136.257 -77.8369 145.166
RightUpLeg  -61.2743 4.95365 -7.40832
RightLeg  69.2217 -3.9817 -12.2758
RightFoot  -14.4735 0.0306464 4.72712
RightToes  5.82063e-011 0 -3.6325e-017
Spine  45.1616 -1.70475 4.80455
Spine1  -20.0637 1.3329 -13.3709
HEad  -52.6213 -26.2364 11.3845
LeftShoulder1  -0.306066 -3.62821 14.5658
LeftArm  65.7116 -73.2208 -146.858
LeftForeArm  142.935 -76.7454 -133.793
LeftHand  -0.932063 0.872996 23.8304
RightShoulder  -0.239709 -1.68679 -25.1578
RightArm  -162.37 79.4879 -92.337
RightForeArm  15.6785 -6.30348 2.47958
RightHand  0.141111 -6.73231 -13.9124
LeftUpLeg  -56.0497 -4.27436 -11.1729
LeftLeg  67.0499 5.02779 13.6201
LeftFoot  -19.512 -0.202585 -4.46722
LeftToes  -1.1369e-010 2.7689e-011 -1.90827e-011
134
root  10.7127 32.3372 2.52824 -142.187 -76.0604 150.803
RightUpLeg  -59.8697 5.81727 -7.56153
RightLeg  66.4445 -4.03932 -10.7512
RightFoot  -13.2278 -0.0122166 4.65331
RightToes  5.82063e-011 0 -3.6325e-017
Spine  43.9682 -1.79604 5.7055
Spine1  -16.2231 2.00698 -14.4765
HEad  -55.8168 -26.1708 12.5222
LeftShoulder1  -0.238998 -2.46942 14.2425
LeftArm  68.2185 -71.1294 -147.095
LeftForeArm  139.987 -77.4068 -130.523
LeftHand  -0.957708 0.655813 23.3807
RightShoulder  -0.496327 1.24294 -21.8377
RightArm  -179.811 87.4985 -105.613
RightForeArm  21.2849 -6.54375 4.00726
RightHand  0.253202 -7.64796 -14.1255
LeftUpLeg  -54.5351 -3.34066 -11.2657
LeftLeg  64.8063 6.28639 14.9965
LeftFoot  -18.4883 -0.170852 -4.51675
LeftToes  -1.1369e-010 2.7689e-011 -1.90827e-011
135
root  10.6993 33.242 2.72241 -146.846 -74.2934 155.859
RightUpLeg  -57.5828 6.6738 -7.33447
RightLeg  61.2634 -4.3092 -8.985
RightFoot  -11.1381 -0.0810129 3.86066
RightToes  5.82063e-011 0 -3.6325e-017
Spine  42.9124 -1.45478 5.92192
Spine1  -14.0592 2.69617 -14.509
HEad  -57.0105 -24.9661 12.9804
LeftShoulder1  -0.198343 -1.85092 13.9035
LeftArm  73.4488 -70.2892 -150.027
LeftForeArm  137.393 -77.9974 -127.252
LeftHand  -1.02183 0.344339 23.41
RightShoulder  -0.51781 3.98229 -17.6755
RightArm  11.5673 85.0104 88.9608
RightForeArm  25.3987 -6.69333 5.08319
RightHand  0.357041 -8.41038 -14.5869
LeftUpLeg  -52.2389 -2.973 -10.7064
LeftLeg  60.3046 8.14617 15.6652
LeftFoot  -16.7429 -0.141387 -5.13976
LeftToes  -1.1369e-010 2.7689e-011 -1.90827e-011
136
root  10.5668 34.3066 2.89139 -151.769 -72.5506 161.215
RightUpLeg  -54.3768 7.52601 -6.59802
RightLeg  54.9379 -4.46303 -7.21208
RightFoot  -8.91455 -0.128115 3.13508
RightToes  5.82063e-011 0 -3.6325e-017
Spine  41.7295 -0.941414 5.66159
Spine1  -12.748 3.14021 -13.2833
HEad  -56.3048 -23.1567 12.625
LeftShoulder1  -0.17595 -1.4665 13.7155
LeftArm  77.3473 -70.4696 -152.803
LeftForeArm  137.017 -78.0128 -127.064
LeftHand  -1.03211 0.438809 24.0875
RightShoulder  -0.350584 5.61026 -14.0553
RightArm  4.40773 79.7599 83.2697
RightForeArm  27.4973 -6.80202 5.86585
RightHand  0.424359 -8.95498 -14.6062
LeftUpLeg  -49.2403 -3.03174 -9.53597
LeftLeg  55.1033 10.7089 16.487
LeftFoot  -14.6386 -0.0790819 -5.77267
LeftToes  -1.1369e-010 2.7689e-011 -1.90827e-011
137
root  10.3287 35.2995 3.0583 -156.502 -70.6852 166.232
RightUpLeg  -50.864 7.83432 -5.5059
RightLeg  48.7623 -4.01024 -5.23874
RightFoot  -7.28261 -0.176257 3.54616
RightToes  5.82063e-011 0 -3.6325e-017
Spine  40.1204 -0.527833 5.06851
Spine1  -11.7478 3.17794 -11.2621
HEad  -53.0398 -21.7505 11.8841
LeftShoulder1  -0.147281 -0.568876 13.8006
LeftArm  77.9014 -70.7466 -154.048
LeftForeArm  137.005 -77.719 -128.423
LeftHand  -0.978871 0.922753 25.2689
RightShoulder  -0.272529 5.46031 -13.2028
RightArm  3.68764 77.8033 82.6661
RightForeArm  27.469 -6.89272 6.41563
RightHand  0.425694 -9.34086 -13.3151
LeftUpLeg  -46.0687 -3.37352 -8.17054
LeftLeg  50.4187 14.0046 17.8634
LeftFoot  -12.7233 0.00531588 -5.81341
LeftToes  -1.1369e-010 2.7689e-011 -1.90827e-011
138
root  10.0195 36.0373 3.23371 -159.968 -68.6835 170.069
RightUpLeg  -48.1028 7.32338 -4.33633
RightLeg  43.886 -2.45952 -2.83199
RightFoot  -6.42696 -0.253648 4.89613
RightToes  5.82063e-011 0 -3.6325e-017
Spine  38.7391 -0.349033 4.38558
Spine1  -12.2347 2.82906 -9.27068
HEad  -46.3248 -21.3078 10.9675
LeftShoulder1  -0.118421 0.243796 13.8131
LeftArm  75.5487 -70.9731 -153.124
LeftForeArm  135.824 -77.6255 -128.529
LeftHand  -0.939279 1.26876 26.2397
RightShoulder  -0.353054 4.35402 -14.8928
RightArm  4.35588 79.3081 82.2794
RightForeArm  25.8398 -6.92066 6.48558
RightHand  0.366113 -9.2635 -11.844
LeftUpLeg  -43.6374 -4.15625 -6.99916
LeftLeg  47.0526 17.1331 19.142
LeftFoot  -11.5976 0.0574959 -5.40919
LeftToes  -1.1369e-010 2.7689e-011 -1.90827e-011
139
root  9.69903 36.3891 3.42271 -162.24 -66.5985 172.86
RightUpLeg  -46.8807 6.78031 -3.37537
RightLeg  41.3922 -0.611454 -0.841742
RightFoot  -6.25643 -0.308727 5.99998
RightToes  5.82063e-011 0 -3.6325e-017
Spine  38.2545 -0.345836 3.94243
Spine1  -14.293 2.40443 -7.78224
HEad  -38.312 -21.2904 10.3002
LeftShoulder1  -0.104724 0.45488 13.5915
LeftArm  74.5502 -71.5058 -153.075
LeftForeArm  135.427 -77.6633 -128.257
LeftHand  -0.945324 1.25813 26.3443
RightShoulder  -0.434354 3.01017 -17.3787
RightArm  -1.51499 84.1655 73.1749
RightForeArm  22.3334 -6.89464 6.15862
RightHand  0.291854 -8.54545 -11.8054
LeftUpLeg  -42.7134 -5.29219 -6.05738
LeftLeg  45.7267 18.5943 19.6996
LeftFoot  -11.3585 0.0674714 -5.03959
LeftToes  -1.1369e-010 2.7689e-011 -1.90827e-011
140
root  9.44743 36.3029 3.62361 -163.732 -64.4337 174.671
RightUpLeg  -47.3423 6.85835 -2.87174
RightLeg  42.0135 -0.146622 -0.432879
RightFoot  -6.81879 -0.286467 6.06082
RightToes  5.82063e-011 0 -3.6325e-017
Spine  38.6554 -0.480309 3.78235
Spine1  -16.3702 2.03946 -7.00343
HEad  -33.2092 -20.8404 10.6361
LeftShoulder1  -0.096412 0.52287 13.3572
LeftArm  78.0445 -72.2037 -156.965
LeftForeArm  137.532 -77.439 -129.775
LeftHand  -0.953992 1.14835 25.9102
RightShoulder  -0.414393 1.19754 -19.9656
RightArm  -114.238 86.8571 -44.5458
RightForeArm  16.8634 -6.77889 5.31763
RightHand  0.22117 -7.63657 -12.6568
LeftUpLeg  -43.3526 -6.10169 -5.4169
LeftLeg  46.8448 17.7122 19.5515
LeftFoot  -11.7716 0.051965 -4.94506
LeftToes  -1.1369e-010 2.7689e-011 -1.90827e-011
141
root  9.30239 35.7797 3.82932 -164.592 -62.4183 175.164
RightUpLeg  -49.0764 6.8948 -2.8189
RightLeg  45.7688 -1.0042 -1.43671
RightFoot  -8.07733 -0.207293 5.32374
RightToes  5.82063e-011 0 -3.6325e-017
Spine  39.7947 -0.663264 3.71001
Spine1  -17.6999 1.74399 -6.77652
HEad  -32.7193 -20.1908 11.6695
LeftShoulder1  -0.0970777 0.433427 13.3004
LeftArm  83.6751 -72.5525 -163.144
LeftForeArm  140.173 -77.0482 -132.019
LeftHand  -0.947947 1.15749 25.8049
RightShoulder  -0.24422 -1.35691 -22.9896
RightArm  -139.404 79.0804 -74.5529
RightForeArm  11.2668 -6.51423 3.73905
RightHand  0.178618 -7.18853 -12.9636
LeftUpLeg  -44.9407 -6.16881 -5.38064
LeftLeg  50.3342 15.3766 19.3499
LeftFoot  -12.967 0.00368329 -5.17307
LeftToes  -1.1369e-010 2.7689e-011 -1.90827e-011
